<?xml version="1.0" encoding="UTF-8" standalone="no"?>
<!-- Created with Inkscape (http://www.inkscape.org/) -->

<svg
   xmlns:dc="http://purl.org/dc/elements/1.1/"
   xmlns:cc="http://creativecommons.org/ns#"
   xmlns:rdf="http://www.w3.org/1999/02/22-rdf-syntax-ns#"
   xmlns:svg="http://www.w3.org/2000/svg"
   xmlns="http://www.w3.org/2000/svg"
   xmlns:xlink="http://www.w3.org/1999/xlink"
   version="1.1"
   width="533.51764"
   height="291.78506"
   viewBox="0 0 533.51762 291.78506"
   id="svg2639"
   xml:space="preserve"><metadata
   id="metadata2851"><rdf:RDF><cc:Work
       rdf:about=""><dc:format>image/svg+xml</dc:format><dc:type
         rdf:resource="http://purl.org/dc/dcmitype/StillImage" /><dc:title></dc:title></cc:Work></rdf:RDF></metadata><defs
   id="defs2849"><linearGradient
   id="linearGradient3312"><stop
     id="stop3314"
     style="stop-color:#91c4b7;stop-opacity:1"
     offset="0" /><stop
     id="stop3316"
     style="stop-color:#005f61;stop-opacity:1"
     offset="1" /></linearGradient><linearGradient
   id="linearGradient3300"><stop
     id="stop3302"
     style="stop-color:#3c857c;stop-opacity:1"
     offset="0" /><stop
     id="stop3304"
     style="stop-color:#3c857c;stop-opacity:0"
     offset="1" /></linearGradient><linearGradient
   id="linearGradient3355"><stop
     id="stop3357"
     style="stop-color:#005f61;stop-opacity:1"
     offset="0" /><stop
     id="stop3359"
     style="stop-color:#000000;stop-opacity:1"
     offset="1" /></linearGradient><linearGradient
   id="linearGradient3301"><stop
     id="stop3303"
     style="stop-color:#ffffff;stop-opacity:1"
     offset="0" /><stop
     id="stop3305"
     style="stop-color:#868686;stop-opacity:1"
     offset="1" /></linearGradient><linearGradient
   id="linearGradient4531"><stop
     id="stop4533"
     style="stop-color:#ffffff;stop-opacity:1"
     offset="0" /><stop
     id="stop4535"
     style="stop-color:#ffffff;stop-opacity:0.88235295"
     offset="1" /></linearGradient><linearGradient
   id="linearGradient4501"><stop
     id="stop4503"
     style="stop-color:#ffffff;stop-opacity:1"
     offset="0" /><stop
     id="stop4505"
     style="stop-color:#ffffff;stop-opacity:0"
     offset="1" /></linearGradient><linearGradient
   id="linearGradient4485"><stop
     id="stop4487"
     style="stop-color:#ffffff;stop-opacity:1"
     offset="0" /><stop
     id="stop4489"
     style="stop-color:#ffffff;stop-opacity:0"
     offset="1" /></linearGradient><linearGradient
   id="linearGradient4001"><stop
     id="stop4003"
     style="stop-color:#005f61;stop-opacity:1"
     offset="0" /><stop
     id="stop4005"
     style="stop-color:#91c4b7;stop-opacity:1"
     offset="1" /></linearGradient><linearGradient
   id="linearGradient3985"><stop
     id="stop3987"
     style="stop-color:#c8c7c5;stop-opacity:1"
     offset="0" /><stop
     id="stop3989"
     style="stop-color:#c8c7c5;stop-opacity:0"
     offset="1" /></linearGradient><linearGradient
   id="linearGradient3821"><stop
     id="stop3823"
     style="stop-color:#3e3e3e;stop-opacity:1"
     offset="0" /><stop
     id="stop3825"
     style="stop-color:#3e3e3e;stop-opacity:0"
     offset="1" /></linearGradient>
	
	
	
	
	
	
	
	
	
	
	
	
	
	
	
	
	
	
<filter
   color-interpolation-filters="sRGB"
   id="filter3795"><feGaussianBlur
     id="feGaussianBlur3797"
     stdDeviation="4.575671" /></filter><mask
   id="mask3813"><g
     id="g3815"
     style="fill:#2f6962;fill-opacity:1;filter:url(#filter3795)">
		<path
   d="M 17.749,121.529 C 13.254,108.474 20.192,94.247 33.247,89.753 L 244.466,17.028 c 13.055,-4.495 27.282,2.444 31.777,15.499 l 38.943,113.096 c 4.495,13.055 -2.444,27.281 -15.499,31.776 L 88.467,250.123 C 75.412,254.618 61.185,247.679 56.69,234.624 l -38.941,-113.095 0,0 z"
   id="path3817"
   style="fill:#2f6962;fill-opacity:1" />
		<path
   d=""
   id="path3819"
   style="fill:#2f6962;fill-opacity:1" />
	</g></mask><linearGradient
   x1="128.61047"
   y1="239.37396"
   x2="138.61214"
   y2="267.79517"
   id="linearGradient3827"
   xlink:href="#linearGradient3821"
   gradientUnits="userSpaceOnUse" /><mask
   id="mask3913"><path
     d="M 95.108,61.776 244.59,10.309 c 15.666,-5.394 32.738,2.933 38.132,18.599 l 39.799,115.58 c 5.394,15.666 -2.932,32.738 -18.598,38.131 L 199.943,218.42 95.108,61.776 z"
     id="path3915"
     style="fill:#2f6962" /></mask><filter
   color-interpolation-filters="sRGB"
   id="filter3973"><feGaussianBlur
     id="feGaussianBlur3975"
     stdDeviation="1.6345834" /></filter><linearGradient
   x1="173.70392"
   y1="267.11093"
   x2="166.66296"
   y2="246.63959"
   id="linearGradient3991"
   xlink:href="#linearGradient3985"
   gradientUnits="userSpaceOnUse"
   gradientTransform="translate(3.2285978,-1.9997712)" /><linearGradient
   x1="308.85297"
   y1="100.29708"
   x2="270.57684"
   y2="-8.0806551"
   id="linearGradient3999"
   xlink:href="#linearGradient4001"
   gradientUnits="userSpaceOnUse"
   gradientTransform="translate(3.2285978,2.2879929e-4)" /><filter
   color-interpolation-filters="sRGB"
   id="filter4127"><feGaussianBlur
     id="feGaussianBlur4129"
     stdDeviation="1.2154263" /></filter>
		
		
	
			
			
			
			
		<mask
   id="mask4168"><path
     d="m 113.124,36.661 c 17.233,36.62 75.371,131.675 105.366,171.054 -4.069,13.505 -18.428,20.812 -30.299,17.44 L 72.849,58.555 C 72.779,46.208 95.748,31.956 113.124,36.661 z"
     id="path4170"
     style="fill:#7c858c" /></mask>
			
			
			
		<filter
   x="-0.17873323"
   y="-0.18128486"
   width="1.3574665"
   height="1.3625697"
   color-interpolation-filters="sRGB"
   id="filter4475"><feGaussianBlur
     id="feGaussianBlur4477"
     stdDeviation="1.0178857" /></filter><mask
   id="mask4481"><path
     d="m 213.96734,236.83626 c -1.97572,1.50086 -5.71734,14.75814 -3.57441,17.84065 3.18643,4.58465 22.42412,-12.69851 20.66112,-17.24646 -1.81294,-4.67518 -15.35694,-1.41227 -17.08671,-0.59419 z m -9.6286,-7.34722 2.48938,3.78195 c 0,0 0.69017,1.04372 0.29628,3.40302 -0.6156,3.68976 -3.17495,13.25876 -3.32578,21.12255 -0.0183,0.94976 -0.91914,9.5039 7.21943,7.07006 8.1393,-2.43309 24.96824,-17.85854 28.33195,-24.69252 3.36372,-6.83399 -0.96483,-10.63865 -6.21591,-10.98709 -5.2511,-0.34921 -13.3456,0.21962 -17.06874,0.84795 -3.72313,0.62832 -3.49361,-0.75818 -6.67723,-4.3506 -0.23896,-0.26961 -5.04938,3.80468 -5.04938,3.80468 z"
     id="path4483"
     style="fill:#aaaaaa;fill-rule:evenodd" /></mask><radialGradient
   cx="197.5676"
   cy="252.71837"
   r="166.51035"
   fx="197.5676"
   fy="252.71837"
   id="radialGradient4491"
   xlink:href="#linearGradient4485"
   gradientUnits="userSpaceOnUse"
   gradientTransform="matrix(1.5433331,-0.1032133,0.09131267,1.3653854,-130.42141,-95.005447)" /><radialGradient
   cx="135.63954"
   cy="12.000564"
   r="161.65305"
   fx="135.63954"
   fy="12.000564"
   id="radialGradient4499"
   xlink:href="#linearGradient4485"
   gradientUnits="userSpaceOnUse"
   gradientTransform="matrix(1.870471,-0.6430111,0.256613,0.7464679,-116.69068,109.71214)" /><radialGradient
   cx="143.59599"
   cy="139.937"
   r="68.377998"
   fx="143.59599"
   fy="139.937"
   id="radialGradient4507"
   xlink:href="#linearGradient4501"
   gradientUnits="userSpaceOnUse"
   gradientTransform="matrix(1.3366435,0.07829819,-0.1078591,1.8412818,-30.01859,-128.96952)" /><linearGradient
   x1="396.629"
   y1="165.46899"
   x2="397.289"
   y2="6.7780013"
   id="linearGradient4515"
   xlink:href="#linearGradient4001"
   gradientUnits="userSpaceOnUse"
   gradientTransform="translate(3.2285978,2.2879929e-4)" /><linearGradient
   x1="227.66476"
   y1="217.85138"
   x2="227.66476"
   y2="275.00342"
   id="linearGradient3299"
   xlink:href="#linearGradient3301"
   gradientUnits="userSpaceOnUse"
   gradientTransform="translate(3.2285978,2.2879929e-4)" /><linearGradient
   x1="110.77139"
   y1="168.57651"
   x2="145.4675"
   y2="151.57651"
   id="linearGradient3353"
   xlink:href="#linearGradient3355"
   gradientUnits="userSpaceOnUse" /><linearGradient
   x1="170.289"
   y1="23.279486"
   x2="177.15161"
   y2="214.254"
   id="linearGradient3306"
   xlink:href="#linearGradient3300"
   gradientUnits="userSpaceOnUse" /><radialGradient
   cx="228.5497"
   cy="-6.5085859"
   r="111.43131"
   fx="228.5497"
   fy="-6.5085859"
   id="radialGradient3310"
   xlink:href="#linearGradient3312"
   gradientUnits="userSpaceOnUse"
   gradientTransform="matrix(1.5477236,-0.1769447,0.1768183,1.5466188,-126.63203,38.786662)" /><linearGradient
   x1="128.61047"
   y1="239.37396"
   x2="138.61214"
   y2="267.79517"
   id="linearGradient3453"
   xlink:href="#linearGradient3821"
   gradientUnits="userSpaceOnUse" /><linearGradient
   x1="128.61047"
   y1="239.37396"
   x2="138.61214"
   y2="267.79517"
   id="linearGradient3455"
   xlink:href="#linearGradient3821"
   gradientUnits="userSpaceOnUse" /><radialGradient
   cx="197.5676"
   cy="252.71837"
   r="166.51035"
   fx="197.5676"
   fy="252.71837"
   id="radialGradient3457"
   xlink:href="#linearGradient4485"
   gradientUnits="userSpaceOnUse"
   gradientTransform="matrix(1.5433331,-0.1032133,0.09131267,1.3653854,-130.42141,-95.005447)" /><radialGradient
   cx="197.5676"
   cy="252.71837"
   r="166.51035"
   fx="197.5676"
   fy="252.71837"
   id="radialGradient3459"
   xlink:href="#linearGradient4485"
   gradientUnits="userSpaceOnUse"
   gradientTransform="matrix(1.5433331,-0.1032133,0.09131267,1.3653854,-130.42141,-95.005447)" /><radialGradient
   cx="135.63954"
   cy="12.000564"
   r="161.65305"
   fx="135.63954"
   fy="12.000564"
   id="radialGradient3461"
   xlink:href="#linearGradient4485"
   gradientUnits="userSpaceOnUse"
   gradientTransform="matrix(1.870471,-0.6430111,0.256613,0.7464679,-116.69068,109.71214)" /><radialGradient
   cx="135.63954"
   cy="12.000564"
   r="161.65305"
   fx="135.63954"
   fy="12.000564"
   id="radialGradient3463"
   xlink:href="#linearGradient4485"
   gradientUnits="userSpaceOnUse"
   gradientTransform="matrix(1.870471,-0.6430111,0.256613,0.7464679,-116.69068,109.71214)" /><linearGradient
   x1="110.77139"
   y1="168.57651"
   x2="145.4675"
   y2="151.57651"
   id="linearGradient3465"
   xlink:href="#linearGradient3355"
   gradientUnits="userSpaceOnUse" /><linearGradient
   x1="110.77139"
   y1="168.57651"
   x2="145.4675"
   y2="151.57651"
   id="linearGradient3467"
   xlink:href="#linearGradient3355"
   gradientUnits="userSpaceOnUse" /></defs>
<g
   transform="translate(3.2285978,2.2879929e-4)"
   id="Background">
</g>
<g
   transform="translate(3.2285978,2.2879929e-4)"
   id="g2643">
		<path
   d="M 11.004,141.618 C 4.711,123.341 14.425,103.424 32.702,97.131 L 249.423,22.512 c 18.277,-6.293 38.195,3.422 44.488,21.699 l 43.577,126.552 c 6.293,18.277 -3.421,38.194 -21.698,44.487 L 99.069,289.869 C 80.792,296.161 60.874,286.447 54.581,268.17 l -43.577,-126.552 0,0 z"
   id="path2645"
   style="fill:#7c858c" />
		<path
   d=""
   id="path2647"
   style="fill:#7c858c" />
	</g><g
   transform="translate(3.2285978,2.2879929e-4)"
   id="g2649"
   style="fill:url(#linearGradient3827);fill-opacity:1">
		<path
   d="M 7.097,130.272 C 0.803,111.995 10.518,92.078 28.795,85.785 L 245.517,11.166 c 18.277,-6.293 38.194,3.422 44.488,21.699 l 43.577,126.552 c 6.293,18.277 -3.421,38.194 -21.698,44.487 L 95.162,278.523 C 76.885,284.816 56.967,275.101 50.674,256.824 L 7.097,130.272 l 0,0 z"
   id="path2651"
   style="fill:url(#linearGradient3453);fill-opacity:1" />
		<path
   d=""
   id="path2653"
   style="fill:url(#linearGradient3455);fill-opacity:1" />
	</g><path
   d="m 159.8276,246.82523 13.562,-4.67 6.521,18.94 -13.562,4.67 -6.521,-18.94 z m 25.041,-8.622 13.562,-4.67 6.521,18.939 -13.562,4.67 -6.521,-18.939 z m 25.041,-8.622 13.563,-4.67 6.521,18.94 -13.562,4.67 -6.522,-18.94 z m 25.042,-8.623 13.562,-4.67 6.521,18.94 -13.562,4.67 -6.521,-18.94 z m 25.041,-8.622 13.562,-4.67 6.521,18.939 -13.562,4.67 -6.521,-18.939 z m -125.207,43.112 13.562,-4.67 6.521,18.94 -13.562,4.67 -6.521,-18.94 z"
   id="path2655"
   style="opacity:0.7;fill:url(#linearGradient3991);fill-opacity:1;fill-rule:evenodd" /><g
   transform="translate(3.2285978,2.2879929e-4)"
   id="g2657"
   style="fill:url(#radialGradient4491);fill-opacity:1">
		<path
   d="M 2.568,124.472 C -3.725,106.195 5.989,86.278 24.266,79.985 L 245.516,3.807 c 18.277,-6.292 38.195,3.422 44.488,21.699 l 41.752,121.253 c 6.293,18.277 -3.421,38.194 -21.698,44.487 L 88.808,267.424 C 70.531,273.717 50.613,264.002 44.32,245.725 L 2.568,124.472 l 0,0 z"
   id="path2659"
   style="fill:url(#radialGradient3457);fill-opacity:1" />
		<path
   d=""
   id="path2661"
   style="fill:url(#radialGradient3459);fill-opacity:1" />
	</g><g
   transform="translate(3.2285978,2.2879929e-4)"
   id="g2663">
		<path
   d="M 1.917,122.581 C -4.376,104.304 5.338,84.387 23.615,78.094 L 244.865,1.916 c 18.277,-6.293 38.194,3.422 44.488,21.699 l 41.752,121.253 c 6.293,18.277 -3.421,38.194 -21.698,44.487 L 88.157,265.533 C 69.88,271.826 49.962,262.111 43.669,243.834 L 1.917,122.581 l 0,0 z"
   id="path2665"
   style="fill:#7c858c" />
		<path
   d=""
   id="path2667"
   style="fill:#7c858c" />
	</g><g
   transform="translate(3.2285978,2.2879929e-4)"
   id="g2669"
   style="opacity:0.9;fill:url(#radialGradient4499);fill-opacity:1">
		<path
   d="M 5.763,123.175 C -0.35,105.42 9.086,86.072 26.841,79.958 L 243.342,5.416 c 17.755,-6.113 37.104,3.324 43.217,21.079 l 38.787,112.64 c 6.113,17.755 -3.323,37.103 -21.078,43.216 L 87.767,256.893 C 70.012,263.006 50.664,253.569 44.55,235.814 L 5.763,123.175 l 0,0 z"
   id="path2671"
   style="fill:url(#radialGradient3461);fill-opacity:1" />
		<path
   d=""
   id="path2673"
   style="fill:url(#radialGradient3463);fill-opacity:1" />
	</g><g
   transform="translate(3.2285978,2.2879929e-4)"
   id="g2675">
		<path
   d="M 7.427,123.74 C 1.493,106.508 10.652,87.728 27.885,81.795 L 243.792,7.457 c 17.232,-5.933 36.012,3.226 41.946,20.459 l 39.771,115.497 c 5.934,17.233 -3.226,36.012 -20.458,41.945 L 89.143,259.696 C 71.91,265.629 53.131,256.469 47.197,239.237 L 7.427,123.74 l 0,0 z"
   id="path2677"
   style="fill:#3e3e3e" />
		<path
   d=""
   id="path2679"
   style="fill:#3e3e3e" />
	</g><g
   transform="translate(3.2285978,2.2879929e-4)"
   id="g3799"
   style="fill:url(#linearGradient3353);fill-opacity:1">
		<path
   d="M 10.414,122.666 C 5.02,107 13.346,89.928 29.012,84.534 L 244.59,10.309 c 15.666,-5.394 32.738,2.933 38.132,18.599 l 39.799,115.58 c 5.394,15.666 -2.932,32.738 -18.598,38.131 L 88.345,256.844 c -15.666,5.394 -32.738,-2.933 -38.133,-18.599 l -39.798,-115.579 0,0 z"
   id="path3801"
   style="fill:url(#linearGradient3465);fill-opacity:1" />
		<path
   d=""
   id="path3803"
   style="fill:url(#linearGradient3467);fill-opacity:1" />
	</g><g
   transform="translate(-8.7714022,-3.9997712)"
   mask="url(#mask3813)"
   id="g2681"
   style="fill:#3c857c;fill-opacity:1">
		<path
   d="M 10.414,122.666 C 5.02,107 13.346,89.928 29.012,84.534 L 244.59,10.309 c 15.666,-5.394 32.738,2.933 38.132,18.599 l 39.799,115.58 c 5.394,15.666 -2.932,32.738 -18.598,38.131 L 88.345,256.844 c -15.666,5.394 -32.738,-2.933 -38.133,-18.599 l -39.798,-115.579 0,0 z"
   id="path2683"
   style="fill:#3c857c;fill-opacity:1" />
		<path
   d=""
   id="path2685"
   style="fill:#3c857c;fill-opacity:1" />
	</g><g
   transform="translate(3.2285978,2.2879929e-4)"
   id="g2693">
		<g
   id="g2695">
			<path
   d="m 30,102.111 c -1.771,-7.695 2.602,-9.355 2.672,-9.379 1.371,-0.472 6.183,-1.554 7.316,1.737 1.025,2.977 -4.531,7.82 -9.583,9.56 -5.015,1.727 -12.469,1.364 -13.494,-1.613 -1.133,-3.291 3.325,-5.401 4.696,-5.873 0.069,-0.024 4.342,-2.237 7.88,5.746 0.13,0.293 0.571,0.074 0.513,-0.178 z"
   id="path2697"
   style="fill:#ffe600;fill-rule:evenodd" />
			<path
   d="m 32.867,154.308 c 7.274,17.049 17.313,28.317 23.916,26.044 6.602,-2.273 7.575,-17.334 2.812,-35.247 -0.367,-3.303 -0.911,-9.542 -0.275,-13.127 0.464,-2.615 -0.112,-3.379 -2.212,-1.079 -0.634,0.694 -1.14,1.345 -1.514,2.022 -7.335,-18.703 -18.159,-31.442 -25.141,-29.038 -6.982,2.404 -7.669,19.106 -1.934,38.36 -0.712,-0.304 -1.51,-0.505 -2.438,-0.662 -3.071,-0.52 -3.054,0.437 -1.079,2.212 2.709,2.435 6.121,7.686 7.865,10.515 z"
   id="path2699"
   style="fill:#000000;fill-opacity:1" />
			<path
   d="m 30.621,139.494 c 5.498,15.966 14.795,27.243 20.766,25.187 5.971,-2.056 6.355,-16.666 0.857,-32.632 -5.498,-15.966 -14.795,-27.243 -20.766,-25.187 -5.971,2.056 -6.354,16.665 -0.857,32.632 z m 23.197,28.556 c 0.536,1.558 1.515,2.634 2.186,2.403 0.671,-0.231 0.78,-1.681 0.243,-3.239 -0.536,-1.558 -1.515,-2.633 -2.186,-2.403 -0.67,0.231 -0.779,1.682 -0.243,3.239 z m -4.7,1.619 c 0.536,1.558 1.515,2.634 2.186,2.403 0.67,-0.231 0.779,-1.681 0.243,-3.239 -0.536,-1.558 -1.515,-2.634 -2.186,-2.402 -0.671,0.23 -0.78,1.68 -0.243,3.238 z"
   id="path2701"
   style="fill:#ffffff;fill-opacity:1;fill-rule:evenodd" />
			<g
   id="g2703">
				
					<ellipse
   cx="50.867001"
   cy="163.328"
   rx="4.428"
   ry="2.142"
   transform="matrix(-0.9455,0.3255,-0.3255,-0.9455,152.1324,301.1998)"
   id="ellipse2705"
   style="fill:#ffe600" />
				<path
   d=""
   id="path2707"
   style="fill:#ffe600" />
			</g>
		</g>
		<g
   id="g2709">
			<path
   d="m 64.282,90.307 c -1.771,-7.695 2.603,-9.355 2.672,-9.379 1.371,-0.472 6.183,-1.554 7.316,1.737 1.025,2.978 -4.531,7.82 -9.583,9.56 -5.015,1.727 -12.469,1.364 -13.494,-1.613 -1.133,-3.291 3.325,-5.401 4.696,-5.873 0.07,-0.024 4.342,-2.237 7.88,5.746 0.13,0.292 0.572,0.074 0.513,-0.178 z"
   id="path2711"
   style="fill:#ffe600;fill-rule:evenodd" />
			<path
   d="m 67.15,142.503 c 7.274,17.049 17.313,28.317 23.916,26.044 6.602,-2.273 7.575,-17.333 2.812,-35.247 -0.367,-3.303 -0.911,-9.542 -0.275,-13.127 0.464,-2.615 -0.112,-3.379 -2.212,-1.079 -0.634,0.694 -1.139,1.345 -1.514,2.022 -7.334,-18.704 -18.159,-31.442 -25.141,-29.038 -6.982,2.404 -7.669,19.106 -1.934,38.36 -0.712,-0.304 -1.51,-0.505 -2.438,-0.662 -3.071,-0.52 -3.054,0.437 -1.079,2.211 2.709,2.436 6.121,7.687 7.865,10.516 z"
   id="path2713"
   style="fill:#000000;fill-opacity:1" />
			<path
   d="m 64.904,127.689 c 5.498,15.967 14.795,27.243 20.766,25.187 5.971,-2.056 6.355,-16.666 0.857,-32.632 -5.498,-15.967 -14.795,-27.243 -20.766,-25.187 -5.971,2.056 -6.355,16.666 -0.857,32.632 z m 23.197,28.557 c 0.536,1.558 1.515,2.633 2.186,2.402 0.671,-0.231 0.779,-1.681 0.243,-3.239 -0.537,-1.558 -1.515,-2.633 -2.186,-2.402 -0.671,0.231 -0.779,1.681 -0.243,3.239 z m -4.7,1.619 c 0.536,1.558 1.515,2.633 2.185,2.402 0.67,-0.231 0.78,-1.681 0.243,-3.239 -0.536,-1.558 -1.515,-2.633 -2.186,-2.402 -0.671,0.231 -0.779,1.681 -0.242,3.239 z"
   id="path2715"
   style="fill:#ffffff;fill-opacity:1;fill-rule:evenodd" />
			<g
   id="g2717">
				
					<ellipse
   cx="85.149002"
   cy="151.524"
   rx="4.428"
   ry="2.142"
   transform="matrix(-0.9455,0.3255,-0.3255,-0.9455,214.9873,267.075)"
   id="ellipse2719"
   style="fill:#ffe600" />
				<path
   d=""
   id="path2721"
   style="fill:#ffe600" />
			</g>
		</g>
		<g
   id="g2723">
			<path
   d="m 98.565,78.502 c -1.771,-7.694 2.602,-9.355 2.672,-9.379 1.371,-0.472 6.183,-1.554 7.316,1.736 1.025,2.978 -4.531,7.82 -9.583,9.56 -5.015,1.727 -12.469,1.364 -13.494,-1.613 -1.133,-3.291 3.325,-5.401 4.696,-5.873 0.069,-0.024 4.342,-2.237 7.88,5.746 0.13,0.293 0.572,0.075 0.513,-0.177 z"
   id="path2725"
   style="fill:#ffe600;fill-rule:evenodd" />
			<path
   d="m 101.433,130.699 c 7.274,17.048 17.313,28.317 23.915,26.043 6.602,-2.274 7.576,-17.333 2.812,-35.246 -0.367,-3.303 -0.911,-9.542 -0.275,-13.127 0.464,-2.615 -0.112,-3.379 -2.212,-1.079 -0.634,0.695 -1.139,1.345 -1.514,2.022 C 116.825,90.609 106,77.871 99.019,80.274 c -6.982,2.404 -7.669,19.106 -1.934,38.36 -0.712,-0.303 -1.51,-0.504 -2.438,-0.662 -3.071,-0.52 -3.054,0.437 -1.079,2.212 2.709,2.435 6.121,7.686 7.865,10.515 z"
   id="path2727"
   style="fill:#000000;fill-opacity:1" />
			<path
   d="m 99.187,115.885 c 5.498,15.967 14.795,27.243 20.766,25.187 5.971,-2.056 6.355,-16.666 0.857,-32.632 -5.498,-15.967 -14.795,-27.243 -20.766,-25.187 -5.971,2.056 -6.355,16.665 -0.857,32.632 z m 23.197,28.556 c 0.536,1.558 1.515,2.633 2.186,2.403 0.67,-0.231 0.779,-1.681 0.243,-3.239 -0.536,-1.558 -1.515,-2.634 -2.185,-2.403 -0.671,0.232 -0.78,1.682 -0.244,3.239 z m -4.701,1.619 c 0.536,1.558 1.515,2.633 2.186,2.402 0.671,-0.23 0.78,-1.681 0.243,-3.239 -0.536,-1.558 -1.515,-2.633 -2.185,-2.402 -0.671,0.231 -0.78,1.681 -0.244,3.239 z"
   id="path2729"
   style="fill:#ffffff;fill-opacity:1;fill-rule:evenodd" />
			<g
   id="g2731">
				
					<ellipse
   cx="119.432"
   cy="139.72"
   rx="4.428"
   ry="2.142"
   transform="matrix(-0.9455,0.3255,-0.3255,-0.9455,277.8429,232.9489)"
   id="ellipse2733"
   style="fill:#ffe600" />
				<path
   d=""
   id="path2735"
   style="fill:#ffe600" />
			</g>
		</g>
	</g><g
   transform="translate(3.2285978,2.2879929e-4)"
   id="g2737">
		<g
   id="g2739">
			<path
   d="m 96.575,238.982 c 3.342,7.154 7.811,5.77 7.88,5.746 1.371,-0.472 5.829,-2.583 4.696,-5.873 -1.025,-2.977 -8.385,-3.373 -13.437,-1.633 -5.015,1.727 -10.665,6.602 -9.64,9.579 1.133,3.291 5.946,2.208 7.316,1.736 0.07,-0.023 4.799,-0.91 2.672,-9.379 -0.078,-0.31 0.403,-0.41 0.513,-0.176 z"
   id="path2741"
   style="fill:#ffe600;fill-rule:evenodd" />
			<path
   d="m 66.699,196.085 c -4.764,-17.913 -3.791,-32.973 2.812,-35.247 6.602,-2.273 16.641,8.995 23.915,26.043 1.744,2.829 5.156,8.08 7.865,10.514 1.976,1.775 1.992,2.732 -1.079,2.212 -0.927,-0.157 -1.726,-0.358 -2.438,-0.662 5.735,19.254 5.048,35.956 -1.934,38.36 -6.982,2.404 -17.806,-10.334 -25.141,-29.038 -0.374,0.677 -0.88,1.328 -1.514,2.022 -2.1,2.3 -2.675,1.536 -2.212,-1.079 0.637,-3.583 0.093,-9.822 -0.274,-13.125 z"
   id="path2743"
   style="fill:#000000;fill-opacity:1" />
			<path
   d="m 74.049,209.142 c -5.498,-15.966 -5.114,-30.576 0.857,-32.632 5.971,-2.056 15.269,9.22 20.766,25.187 5.498,15.967 5.114,30.577 -0.857,32.633 -5.971,2.054 -15.268,-9.222 -20.766,-25.188 z m 0.699,-36.785 c -0.536,-1.558 -0.428,-3.008 0.243,-3.239 0.67,-0.231 1.649,0.845 2.185,2.403 0.537,1.558 0.427,3.008 -0.243,3.239 -0.67,0.231 -1.649,-0.845 -2.185,-2.403 z m -4.701,1.619 c -0.536,-1.558 -0.427,-3.008 0.243,-3.239 0.67,-0.231 1.649,0.845 2.186,2.403 0.536,1.558 0.427,3.008 -0.243,3.239 -0.67,0.231 -1.65,-0.845 -2.186,-2.403 z"
   id="path2745"
   style="fill:#ffffff;fill-opacity:1;fill-rule:evenodd" />
			<g
   id="g2747">
				
					<ellipse
   cx="75.361"
   cy="177.98599"
   rx="4.428"
   ry="2.142"
   transform="matrix(-0.9455,0.3255,-0.3255,-0.9455,204.5578,321.744)"
   id="ellipse2749"
   style="fill:#ffe600" />
				<path
   d=""
   id="path2751"
   style="fill:#ffe600" />
			</g>
		</g>
		<g
   id="g2753">
			<path
   d="m 130.858,227.178 c 3.341,7.154 7.81,5.77 7.88,5.746 1.371,-0.472 5.829,-2.582 4.696,-5.873 -1.025,-2.977 -8.385,-3.373 -13.437,-1.633 -5.015,1.727 -10.665,6.602 -9.64,9.579 1.133,3.291 5.946,2.208 7.316,1.737 0.069,-0.024 4.799,-0.91 2.672,-9.379 -0.078,-0.312 0.404,-0.412 0.513,-0.177 z"
   id="path2755"
   style="fill:#ffe600;fill-rule:evenodd" />
			<path
   d="m 100.982,184.281 c -4.764,-17.913 -3.791,-32.973 2.812,-35.247 6.602,-2.273 16.641,8.995 23.915,26.044 1.745,2.829 5.157,8.08 7.865,10.513 1.976,1.775 1.993,2.732 -1.079,2.212 -0.927,-0.157 -1.726,-0.358 -2.438,-0.662 5.736,19.254 5.048,35.957 -1.934,38.36 -6.981,2.404 -17.806,-10.334 -25.141,-29.038 -0.374,0.678 -0.879,1.328 -1.513,2.022 -2.1,2.301 -2.676,1.537 -2.212,-1.079 0.636,-3.584 0.092,-9.822 -0.275,-13.125 z"
   id="path2757"
   style="fill:#000000;fill-opacity:1" />
			<path
   d="m 108.332,197.337 c -5.498,-15.966 -5.114,-30.576 0.857,-32.632 5.971,-2.056 15.268,9.22 20.766,25.187 5.498,15.966 5.114,30.576 -0.857,32.632 -5.971,2.056 -15.268,-9.22 -20.766,-25.187 z m 0.699,-36.784 c -0.536,-1.558 -0.428,-3.008 0.243,-3.239 0.671,-0.231 1.649,0.845 2.186,2.402 0.536,1.558 0.427,3.008 -0.243,3.239 -0.671,0.231 -1.65,-0.845 -2.186,-2.402 z m -4.701,1.618 c -0.536,-1.558 -0.427,-3.008 0.243,-3.239 0.67,-0.231 1.649,0.845 2.185,2.402 0.536,1.557 0.428,3.008 -0.243,3.239 -0.671,0.231 -1.649,-0.844 -2.185,-2.402 z"
   id="path2759"
   style="fill:#ffffff;fill-opacity:1;fill-rule:evenodd" />
			<g
   id="g2761">
				
					<ellipse
   cx="109.643"
   cy="166.18201"
   rx="4.428"
   ry="2.142"
   transform="matrix(-0.9455,0.3255,-0.3255,-0.9455,267.4128,287.6192)"
   id="ellipse2763"
   style="fill:#ffe600" />
				<path
   d=""
   id="path2765"
   style="fill:#ffe600" />
			</g>
		</g>
		<g
   id="g2767">
			<path
   d="m 165.141,215.373 c 3.342,7.154 7.811,5.77 7.88,5.746 1.371,-0.472 5.829,-2.582 4.696,-5.873 -1.025,-2.977 -8.385,-3.372 -13.438,-1.633 -5.015,1.727 -10.665,6.602 -9.64,9.579 1.133,3.291 5.945,2.208 7.316,1.737 0.069,-0.024 4.799,-0.91 2.672,-9.379 -0.078,-0.311 0.404,-0.411 0.514,-0.177 z"
   id="path2769"
   style="fill:#ffe600;fill-rule:evenodd" />
			<path
   d="m 135.265,172.476 c -4.764,-17.913 -3.791,-32.973 2.812,-35.246 6.603,-2.273 16.641,8.995 23.916,26.043 1.744,2.829 5.156,8.08 7.865,10.514 1.975,1.775 1.992,2.731 -1.079,2.212 -0.927,-0.157 -1.726,-0.358 -2.438,-0.662 5.735,19.254 5.048,35.957 -1.934,38.36 -6.982,2.404 -17.806,-10.334 -25.141,-29.038 -0.374,0.678 -0.88,1.328 -1.514,2.022 -2.1,2.301 -2.676,1.537 -2.212,-1.079 0.636,-3.584 0.092,-9.823 -0.275,-13.126 z"
   id="path2771"
   style="fill:#000000;fill-opacity:1" />
			<path
   d="m 142.615,185.533 c -5.498,-15.967 -5.114,-30.577 0.857,-32.633 5.971,-2.056 15.269,9.221 20.766,25.187 5.497,15.966 5.114,30.576 -0.857,32.632 -5.971,2.056 -15.268,-9.22 -20.766,-25.186 z m 0.699,-36.785 c -0.537,-1.558 -0.428,-3.008 0.243,-3.239 0.671,-0.231 1.649,0.845 2.186,2.402 0.537,1.558 0.428,3.008 -0.243,3.239 -0.671,0.231 -1.65,-0.844 -2.186,-2.402 z m -4.701,1.619 c -0.536,-1.558 -0.427,-3.008 0.243,-3.239 0.671,-0.231 1.649,0.845 2.186,2.402 0.537,1.558 0.428,3.008 -0.243,3.239 -0.671,0.231 -1.65,-0.845 -2.186,-2.402 z"
   id="path2773"
   style="fill:#ffffff;fill-opacity:1;fill-rule:evenodd" />
			<g
   id="g2775">
				
					<ellipse
   cx="143.92599"
   cy="154.379"
   rx="4.4289999"
   ry="2.142"
   transform="matrix(-0.9455,0.3256,-0.3256,-0.9455,330.2729,253.4852)"
   id="ellipse2777"
   style="fill:#ffe600" />
				<path
   d=""
   id="path2779"
   style="fill:#ffe600" />
			</g>
		</g>
	</g><path
   d="m 98.336598,61.776229 149.482002,-51.467 c 15.666,-5.3940002 32.738,2.933 38.132,18.599 l 39.799,115.580001 c 5.394,15.666 -2.932,32.738 -18.598,38.131 l -103.98,35.801 L 98.336598,61.776229 z"
   id="path2781"
   style="fill:url(#linearGradient3999);fill-opacity:1" /><path
   d="m 100.5176,65.035229 149.077,-51.329 c 13.362,-4.6010002 27.924,2.502 32.525,15.864 l 39.859,115.756001 c 4.602,13.362 -2.5,27.923 -15.863,32.524 l -105.732,36.404 -99.866,-149.219001 z"
   id="path2783"
   style="fill:url(#radialGradient3310);fill-opacity:1" /><path
   d="m 293.0616,129.82523 c 0,12.985 -2.517,16.034 -7.42,16.034 -3.71,0 -6.094,-1.327 -8.614,-3.314 l 0,-26.635 c 2.52,-1.988 5.037,-3.312 8.482,-3.312 5.035,0 7.552,3.312 7.552,17.227 z m 23.589,-0.797 c 0,-25.838 -10.072,-36.041001 -23.19,-36.041001 -7.289,0 -11.661,2.648 -16.433,6.359 l 0,-31.935 -23.851,9.542 0,87.059001 23.851,0 0,-4.638 c 3.844,2.916 8.614,6.096 15.504,6.096 15.24,0 24.119,-11.53 24.119,-36.442 z m -73.636,34.984 0,-69.568001 -23.851,0 0,69.567001 23.851,0 0,10e-4 z m 1.987,-86.396001 c 0,-6.759 -5.698,-11.529 -13.913,-11.529 -7.819,0 -13.648,4.77 -13.648,11.529 0,7.287 5.829,11.792 13.648,11.792 8.216,0 13.913,-4.505 13.913,-11.792 z m -39.003,86.396001 0,-96.601001 -23.851,9.542 0,87.059001 23.851,0 z"
   id="path2785"
   style="fill:#ffffff;fill-opacity:1;fill-rule:evenodd" /><path
   d="m 392.5456,94.444229 -25.177,0 -6.361,25.574001 c -1.456,5.832 -3.444,14.178 -4.372,20.804 -0.795,-6.626 -2.782,-14.973 -4.24,-20.804 l -6.229,-25.574001 -25.309,0 24.118,69.567001 23.453,0 24.117,-69.567001 z m 31.35,-16.828 c 0,-6.759 -5.698,-11.529 -13.913,-11.529 -7.819,0 -13.648,4.77 -13.648,11.529 0,7.287 5.83,11.792 13.648,11.792 8.215,0 13.913,-4.505 13.913,-11.792 z m -1.988,86.396001 0,-69.568001 -23.851,0 0,69.567001 23.851,0 0,10e-4 z m 58.661,-68.112001 c -2.782,-1.721 -6.228,-2.914 -11.262,-2.914 -6.096,0 -10.734,2.517 -14.843,6.492 l 0,-5.035 -23.851,0 0,69.567001 23.851,0 0,-37.897 c 0,-8.482 3.579,-11.264 9.41,-11.264 4.636,0 8.082,2.517 11.131,5.832 l 5.564,-24.781001 z m 52.949,45.585001 c -3.71,2.517 -6.361,3.71 -9.542,3.71 -3.975,0 -5.963,-1.591 -5.963,-6.891 l 0,-25.177 15.106,0 0,-18.683001 -15.106,0 0,-27.033 -23.19,9.408 0,17.625 -10.599,0 0,18.683001 10.599,0 0,30.212 c 0,15.769 5.832,22.13 18.42,22.13 6.758,0 12.589,-1.458 17.227,-3.71 l 3.048,-20.274 z"
   id="path2787"
   style="fill:url(#linearGradient4515);fill-opacity:1;fill-rule:evenodd" /><path
   d="m 127.052,43.547 c 17.233,36.62 72.865,128.908 102.86,168.287 -2.858,14.11 -18.673,23.308 -29.809,18.791 L 84.761,64.024 c -0.07,-12.347 22.06,-27.271 42.291,-20.477 z"
   transform="translate(1.2285978,2.2879929e-4)"
   mask="url(#mask3913)"
   id="path2789"
   style="fill:#25514b;filter:url(#filter3973)" /><path
   d="m 221.5326,241.18823 c -2.9,1.834 -8.917,18.762 -6.01,22.858 4.325,6.093 32.696,-15.214 30.405,-21.183 -2.356,-6.136 -21.883,-2.64 -24.395,-1.675 z m -14.341,-9.677 3.368,5.018 c 0,0 0.934,1.385 0.252,4.412 -1.066,4.734 -5.207,16.96 -5.819,27.111 -0.074,1.226 -1.793,12.229 9.964,9.517 11.758,-2.711 36.593,-21.745 41.746,-30.395 5.153,-8.65 -0.843,-13.795 -8.332,-14.524 -7.489,-0.73 -19.089,-0.425 -24.443,0.189 -5.354,0.614 -4.956,-1.165 -9.326,-5.975 -0.327,-0.361 -7.41,4.647 -7.41,4.647 z"
   id="path2795"
   style="fill:#3e3e3e;fill-rule:evenodd" /><path
   d="m 219.7316,238.52023 c -2.9,1.834 -8.917,18.762 -6.009,22.858 4.324,6.092 32.696,-15.214 30.405,-21.183 -2.356,-6.136 -21.882,-2.64 -24.396,-1.675 z m -13.394,-10.003 3.368,5.018 c 0,0 0.934,1.385 0.252,4.412 -1.066,4.734 -5.207,16.96 -5.819,27.111 -0.074,1.226 -1.793,12.229 9.964,9.517 11.758,-2.711 36.593,-21.745 41.746,-30.395 5.153,-8.65 -0.843,-13.795 -8.332,-14.524 -7.489,-0.73 -19.089,-0.425 -24.443,0.189 -5.354,0.614 -4.956,-1.165 -9.326,-5.975 -0.328,-0.361 -7.41,4.647 -7.41,4.647 z"
   id="path2797"
   style="fill:url(#linearGradient3299);fill-opacity:1;fill-rule:evenodd" /><path
   d="m 214.776,227.853 c -2.797,3.296 -6.24,5.845 -9.926,7.474 0.432,-2.596 -0.374,-3.792 -0.374,-3.792 l -3.368,-5.018 c 0,0 7.083,-5.008 7.41,-4.647 3.294,3.624 3.879,5.527 6.258,5.983 z"
   transform="matrix(1.4295286,0.05310508,-0.05040644,1.2918715,-74.202756,-78.804542)"
   mask="url(#mask4481)"
   id="path2799"
   style="fill:#54575a;fill-opacity:1;filter:url(#filter4475)" /><path
   d="m 119.2806,45.547229 c 17.234,36.62 72.865,128.908001 102.86,168.287001 -2.858,14.11 -18.673,23.308 -29.809,18.791 L 76.989598,66.024229 c -0.07,-12.347 22.06,-27.271 42.291002,-20.477 z"
   id="path2803"
   style="fill:#c8c7c5" /><path
   d="m 116.3526,44.661229 c 17.233,36.62 75.371,131.675001 105.366,171.054001 -4.069,13.505 -18.428,20.812 -30.299,17.44 L 76.077598,66.555229 c -0.07,-12.347 22.899,-26.599 40.275002,-21.894 z"
   id="path2805"
   style="fill:#7c858c" /><path
   d="M 192.119,225.881 73.534,54.687 c 3.174,-9.061 16.868,-17.988 30.225,-18.875 22.158,44.223 78.164,134.394 111.831,178.223 -5.194,8.137 -14.62,12.648 -23.471,11.846 z"
   transform="translate(3.2285978,8.0002288)"
   mask="url(#mask4168)"
   id="path2807"
   style="fill:#c8c7c5;filter:url(#filter4127)" /><path
   d="M 207.1556,231.91223 83.611598,53.463229 c 3.583,-3.084 8.164,-5.73 13.116,-7.479 6.902002,12.484 25.220002,44.608 54.336002,88.542001 22.713,34.272 46.085,68.024 64.139,91.973 -2.35,2.316 -5.102,4.145 -8.047,5.413 z m -3.597,1.245 c -1.392,0.368 -2.805,0.615 -4.223,0.733 L 78.446598,59.278229 c 0.699,-1.099 1.537,-2.181 2.494,-3.23 L 203.5586,233.15723 z"
   id="path2809"
   style="fill:url(#radialGradient4507);fill-opacity:1;fill-rule:evenodd" />
<g
   transform="translate(3.2285978,2.2879929e-4)"
   id="Guides"
   style="display:none">
</g>
</svg>